Patient4_TMGait_0pt4_02_left_43_EMG.mot
version=1
nRows=20
nColumns=33
inDegrees=no
endheader
time	1LAddLong	2LGlutMax	3LGlutMed	4LIliopsoas	5LSemiMemb	6LBicFemLong	7LRecFem	8LVastMed	9LVastLat	10LGasMed	11LTibAnt	12lTibPost	13LPeroneusLong	14LSol	15LExtDigLong	16LFlexDigLong	17RAddLong	18RGlutMax	19RGlutMed	20RIliopsoas	21RSemiMemb	22RBicFemLong	23RRecFem	24RVastMed	25RVastLat	26RGasMed	27RTibAnt	28RTibPost	29RPeroneusLong	30RSol	31RExtDigLong	32RFlexDigLong
57.31	0.002441	0.072174	-0.026093	0.01358	0.036774	0.023041	0.10635	0.007477	-0.17899	-0.014648	-0.16144	-0.007782	-0.012817	-0.085449	-0.35736	0.023193	0.000305	0.25192	0.040894	0.097351	-0.020447	-0.046082	-0.10712	-0.001373	-0.15579	0.016174	0.006256	-0.006866	-0.15427	0.084534	-0.009003	-0.009155
57.311	0.004578	0.052948	-0.015564	0.007477	0.024109	0.018311	0.10346	0.00473	-0.17319	-0.031281	-0.13092	-0.01358	0.023193	-0.082703	-0.40115	0.025635	0.005188	0.24628	0.28641	0.11444	-0.018616	-0.043945	-0.32806	0.13306	0.009155	-0.012817	0.000153	-0.002747	0.41824	-0.063019	-0.001831	-0.018311
57.312	0.002289	0.053864	0.000916	0.005188	0.010834	0.028534	0.093079	0.011902	-0.15778	-0.036469	-0.031128	0.00473	0.02533	-0.05188	-0.32822	0.011139	-0.00061	0.28793	0.19333	0.00885	-0.017548	-0.039368	-0.32867	0.30823	0.24384	-0.019226	0.038147	-0.005646	0.41306	-0.13641	-0.001984	-0.013428
57.313	0.007477	0.045776	0.002899	0.012512	0.010223	0.019226	0.070343	0.013123	-0.11566	-0.031891	0.21286	-0.002136	-0.005035	-0.034027	-0.23682	0.009766	0.015869	0.29816	-0.22354	0.011292	-0.04303	-0.057983	-0.036316	-0.067902	0.19867	-0.014801	-0.11459	-0.000916	-0.033722	0.014954	-0.005341	-0.000305
57.314	0.007324	-0.005493	-0.010071	-0.017548	0.013885	0.016937	0.080109	0.009766	-0.066833	-0.009308	0.22797	0.005341	-0.070038	-0.065765	-0.087585	0.018768	0.021057	0.23178	-0.42236	-0.12985	-0.045624	-0.030823	0.1294	-0.23178	0.28976	-0.006256	-0.09964	-0.005646	-0.29159	0	-0.00061	0.005188
57.315	0.05661	-0.020142	0.000153	-0.005493	-0.005493	0.024414	0.061646	0.012054	-0.044861	-0.001221	0.22553	-0.005646	-0.080414	-0.11444	-0.12726	0.018463	0.022736	0.090485	0.38879	-0.21668	-0.030212	-0.045776	0.16754	-0.22781	0.46493	-0.017548	0.081329	-0.005493	-0.076752	0.0383	-0.003967	0.003967
57.316	0.009613	-0.041351	-0.00351	0.00412	0.004883	0.002899	0.06546	0.012207	-0.008087	-0.015717	0.15488	0.015106	-0.044708	-0.15335	-0.098877	0.013123	0.021362	0.09491	0.33966	-0.17685	-0.027466	-0.045471	0.20935	-0.26093	0.31601	-0.012817	0.11429	-0.001526	0.37537	0.07843	0.000153	-0.000305
57.317	-0.044403	-0.062561	-0.010986	0.025024	-0.018005	-0.006866	0.056305	0.00946	0.019989	-0.02121	0.00061	-0.00061	-0.007629	-0.11261	-0.040588	0.021362	0.021667	0.10574	0.67032	0.010986	-0.027466	-0.02533	0.2005	-0.22751	0.1973	-0.001984	0.15274	-0.00061	1.6281	-0.023499	-0.001678	0.001221
57.318	-0.097351	-0.092468	-0.007782	0.033264	-0.004425	0.003357	0.056458	0.011597	0.0383	-0.027161	-0.080872	0.005798	0.013123	-0.097656	0.005951	0.026703	0.014801	0.045776	0.34698	0.27222	-0.04364	-0.006256	-0.032501	-0.26672	0.1001	0.004578	0.24277	0.007629	-0.25482	-0.09964	-0.010376	0.013123
57.319	0.028381	-0.069733	-0.007172	-0.002899	-0.006561	0.007019	0.047913	0.006409	0.061035	-0.03006	-0.12665	-0.000153	-0.001221	-0.084381	0.10696	0.024261	-0.003662	0.10193	0.1326	0.19516	-0.023651	0.050812	-0.34393	-0.19516	0.053864	-0.000763	-0.007172	0.018768	-1.1295	-0.14511	-0.001678	0.002747
57.32	0.014496	-0.10971	0.007477	0.005493	0.006104	0.018005	0.054474	0.003052	0.063782	-0.033569	-0.067444	0.005035	0.000458	-0.080566	0.16068	0.032196	-0.006409	0.036621	0.21194	-0.029144	-0.026245	0.1088	-0.27206	-0.098724	0.023041	-0.006561	-0.18249	0.00473	-0.26932	-0.26916	-0.00061	-0.000916
57.321	0.006104	-0.12512	0.03006	0.015869	-0.001984	0.033264	0.051727	0.009003	0.082092	-0.058289	-0.064392	0.013885	0.016174	-0.077515	0.18723	0.02533	-0.012054	-0.083618	0.005493	-0.098419	-0.040894	0.088806	-0.067444	0.12985	-0.29953	-0.000916	-0.12726	-0.034485	0.44983	-0.1709	-0.005493	0.001678
57.322	0.008392	-0.13504	0.024109	0.035553	-0.013733	-0.000153	0.069733	0.006714	0.091095	-0.026855	-0.066681	0.00885	-0.018158	-0.059509	0.18143	0.02533	0.00351	-0.10346	0.121	-0.065002	-0.060425	0.1004	0.025482	0.21881	-0.3949	0.001831	0.029144	-0.084686	-0.95779	0.14557	-0.00412	-0.003052
57.323	0.012665	-0.12772	-0.013428	0.057373	-0.01358	-0.030365	0.067139	0.013733	0.10696	-0.041199	0.00946	0.009613	-0.031128	-0.050507	0.066681	0.023651	0.016174	-0.074615	0.22995	-0.002441	-0.000305	0.089569	0.068512	0.071411	-0.46845	0.006409	-0.024109	0.035095	-0.30899	0.32593	0.000153	-0.00061
57.324	0.007477	-0.14694	-0.052643	0.042877	0.002289	-0.028076	0.06424	0.015411	0.10513	-0.040894	-0.040436	0.009003	-0.039063	-0.048218	0.55862	0.018768	0.016022	-0.093384	0.06424	-0.054932	0.071716	0.079651	0.029602	-0.071106	-0.3035	0.005493	-0.12421	0.026245	0.77164	0.14648	-0.006561	0.010529
57.325	0.016174	-0.13397	-0.00824	0.006409	-0.00885	-0.028534	0.065002	0.009766	0.11581	-0.055084	-0.003967	0.001068	0.001984	-0.032349	-0.14389	0.010071	0.020599	-0.00946	0.39078	-0.047455	-0.005493	0.022888	0.053558	-0.032043	-0.1471	0.014038	-0.17105	0.010986	1.947	0.048828	-0.002136	-0.002136
57.326	0.011749	-0.13351	0.024872	-0.02655	-0.007629	-0.045624	0.037537	0.008087	0.13229	-0.0737	0.040894	0.002289	0.05722	0.027313	-0.29083	0.013275	0.020905	-0.002594	0.47836	0.009918	-0.039978	0.007935	0.026245	0.041046	-0.041504	0.006256	-0.079346	-0.000305	-0.159	0.087738	0.007477	-0.00061
57.327	0.016022	-0.13779	0.020905	-0.032501	-0.007019	-0.031433	0.052643	0.00946	0.13245	-0.08667	0.14389	0.005341	0.078125	-0.006561	-0.067596	0.022736	0.009918	-0.026093	0.62576	0.11551	-0.040894	0.015259	0.09613	0.067596	0.036621	0	0.013428	-0.00061	-1.7618	0.12573	0.00061	-0.007324
57.328	0.016785	-0.12314	-0.005188	-0.016327	-0.010376	-0.023193	0.059509	0.004272	0.14542	-0.079193	0.009613	-0.001221	0.10757	-0.009766	0.30426	0.027618	-0.003357	-0.047302	0.71167	0.20996	-0.019836	0.036011	0.06073	0.13489	0.13275	-0.005341	0.041504	-0.00351	-0.70557	-0.007324	-0.003052	-0.003815
57.329	0.019379	-0.1474	-0.002136	-0.019226	-0.005035	-0.005798	0.049133	-0.000153	0.14481	-0.055389	0.17777	-0.000305	-0.023956	0.02121	0.22171	0.033264	-0.024414	-0.10208	0.6662	0.06424	0.010529	0.07309	0.085297	0.18662	0.20081	0.005646	0.13031	-0.000916	0.50812	-0.040436	0.000153	-0.007782
